<?xml version="1.0" encoding="UTF-8"?>
<svg id="Calque_2" data-name="Calque 2" xmlns="http://www.w3.org/2000/svg" viewBox="0 0 89.7 76.94">
  <defs>
    <style>
      .cls-1 {
        fill-rule: evenodd;
      }

      .cls-1, .cls-2 {
        fill: #232855;
        stroke-width: 0px;
      }
    </style>
  </defs>
  <g id="Calque_1-2" data-name="Calque 1">
    <g id="pokbleu">
      <path class="cls-1" d="m43.78,13c8.39-.85,14.28-2.86,18,3,7.55,10.12-.38,26.4-9,30h-19c-7.56-3.19-17.47-24.69-6-33,5.12-2.19,8.01-1.55,15,0,.14-2.29.17-4.01,0-4-5.52.17-11.15,2.3-13-6,6.82.02,9.39.73,13,4,.03-2.32-1.09-5.99,4-7,.65,1.14-1.12,3.13-2,6-.72,2.35-1.05,5.09-1,7Z"/>
      <g>
        <path class="cls-2" d="m19.5,50.79c1.3.77,2.31,1.82,3.04,3.16.73,1.34,1.09,2.84,1.09,4.5v.51c0,1.67-.36,3.17-1.09,4.52-.73,1.35-1.74,2.41-3.04,3.18-1.3.77-2.78,1.15-4.45,1.15h-6.44v8.66H0v-26.83h15.05c1.66,0,3.15.38,4.45,1.15Zm-10.88,10.74h3.55c.91,0,1.59-.23,2.05-.7.45-.47.68-1.1.68-1.91v-.31c0-.83-.23-1.48-.68-1.93-.46-.45-1.14-.68-2.05-.68h-3.55v5.54Z"/>
        <path class="cls-2" d="m52.22,52.72c2.52,2.37,3.78,5.81,3.78,10.33s-1.26,7.97-3.78,10.33c-2.52,2.37-6.1,3.55-10.73,3.55s-8.2-1.18-10.71-3.53c-2.51-2.35-3.76-5.8-3.76-10.35s1.25-8,3.76-10.35c2.51-2.35,6.08-3.53,10.71-3.53s8.2,1.18,10.73,3.55Zm-14.94,4.56c-.96,1.12-1.44,2.63-1.44,4.52v2.5c0,1.9.48,3.41,1.44,4.52.96,1.12,2.37,1.68,4.21,1.68s3.26-.56,4.23-1.68,1.46-2.63,1.46-4.52v-2.5c0-1.9-.49-3.41-1.46-4.52-.98-1.12-2.39-1.68-4.23-1.68s-3.25.56-4.21,1.68Z"/>
        <path class="cls-2" d="m78.82,49.64h10.69l-9.63,11.04,9.83,15.79h-10.18l-5.58-9.83-4.68,3.82v6.01h-8.62v-26.83h8.62v11.47l9.56-11.47Z"/>
      </g>
    </g>
  </g>
</svg>