<?xml version="1.0" encoding="UTF-8"?>
<svg id="Calque_2" data-name="Calque 2" xmlns="http://www.w3.org/2000/svg" viewBox="0 0 42.25 46">
  <defs>
    <style>
      .cls-1 {
        fill: #232855;
        fill-rule: evenodd;
        stroke-width: 0px;
      }
    </style>
  </defs>
  <g id="Calque_1-2" data-name="Calque 1">
    <path id="pomme_bleue" data-name="pomme bleue" class="cls-1" d="m21.22,13c8.39-.85,14.28-2.86,18,3,7.55,10.12-.38,26.4-9,30H11.22C3.67,42.81-6.25,21.31,5.22,13c5.12-2.19,8.01-1.55,15,0,.14-2.29.17-4.01,0-4-5.52.17-11.15,2.3-13-6,6.82.02,9.39.73,13,4,.03-2.32-1.09-5.99,4-7,.65,1.14-1.12,3.13-2,6-.72,2.35-1.05,5.09-1,7Z"/>
  </g>
</svg>