<?xml version="1.0" encoding="utf-8"?>
<!-- Generator: Adobe Illustrator 27.9.0, SVG Export Plug-In . SVG Version: 6.00 Build 0)  -->
<svg version="1.1" id="logo" xmlns="http://www.w3.org/2000/svg" xmlns:xlink="http://www.w3.org/1999/xlink" x="0px" y="0px"
	 viewBox="0 0 1920 1080" style="enable-background:new 0 0 1920 1080;" xml:space="preserve">
<style type="text/css">
	.st0{fill-rule:evenodd;clip-rule:evenodd;}
</style>
<g id="logoPok">
	<path id="pomme" class="st0" d="M943.15,549.26c8.32-0.33,13.84-4.48,21.02,1.11c5.86,4.57,6.64,17.14,3.62,25.48
		c-2.8,7.73-7.75,16.01-16.43,17.82c-3.6,0.75-6.66-1.11-10.02-0.56c-2.38,0.4-5.65,1.18-8.49,0.56
		c-12.83-2.81-24.88-28.25-14.2-41.77c2.55-3.22,8.3-5.56,14.34-4.32c2.46,0.51,5.99,2.18,8.63,1.53c-0.05-1.76-0.09-3.53-0.14-5.29
		c-6.04,3.35-11.38,1.97-15.18-2.78c-0.97-1.22-2.51-2.3-2.92-4.04c5.17-0.3,10.54-0.63,14.2,1.53c1.63,0.96,2.61,3.15,4.18,3.9
		c0.03-4,1.3-7.66,2.92-10.16c0.42-0.09,0.84-0.19,1.25-0.28c0.67,0.48,1.46,0.89,1.53,1.95c-0.65,1.3-1.3,2.6-1.95,3.9
		C944.22,541.13,943.38,545.21,943.15,549.26z"/>
	<g id="font">
		<path d="M906.95,618.59v11.62h-9.96v-31.99h13.66c3.41,0,6,0.39,7.77,1.17s3.18,1.98,4.22,3.59s1.56,3.41,1.56,5.41
			c0,3.05-1.06,5.51-3.19,7.38s-4.96,2.81-8.51,2.81H906.95z M906.81,611.72h3.28c2.89,0,4.34-1.06,4.34-3.19c0-2-1.34-3-4.01-3
			h-3.61V611.72z"/>
		<path d="M941.68,630.71c-4.5,0-8.17-1.49-11-4.48s-4.25-6.98-4.25-11.98c0-4.78,1.36-8.73,4.07-11.85s6.47-4.68,11.29-4.68
			c4.45,0,8.08,1.47,10.89,4.41s4.21,6.86,4.21,11.77c0,5.08-1.41,9.15-4.24,12.21S946.15,630.71,941.68,630.71z M941.63,623.44
			c1.66,0,2.85-0.72,3.57-2.17s1.09-4.09,1.09-7.93c0-5.56-1.49-8.34-4.48-8.34c-3.22,0-4.83,3.17-4.83,9.52
			C936.99,620.46,938.54,623.44,941.63,623.44z"/>
		<path d="M989.87,630.21h-10.75l-5.53-12.09l-3.32,4.71v7.38h-9.26v-31.99h9.26v13.23l8.82-13.23h8.83l-8.08,11.71L989.87,630.21z"
			/>
	</g>
</g>
</svg>
