<?xml version="1.0" encoding="utf-8"?>
<!-- Generator: Adobe Illustrator 27.9.0, SVG Export Plug-In . SVG Version: 6.00 Build 0)  -->
<svg version="1.1" id="logo" xmlns="http://www.w3.org/2000/svg" xmlns:xlink="http://www.w3.org/1999/xlink" x="0px" y="0px"
	 viewBox="0 0 1920 1080" style="enable-background:new 0 0 1920 1080;" xml:space="preserve">
<style type="text/css">
	.st0{fill-rule:evenodd;clip-rule:evenodd;fill:#FFFFFF;}
	.st1{fill-rule:evenodd;clip-rule:evenodd;fill:#232855;}
	.st2{fill-rule:evenodd;clip-rule:evenodd;fill:#AAFFC7;}
	.st3{fill:#AAFFC7;}
	.st4{font-family:'ArchivoBlack-Regular';}
	.st5{font-size:48px;}
	.st6{letter-spacing:-3;}
	.st7{fill:#232855;}
</style>
<path id="pomme_00000176753443840076771760000011524091998420190350_" class="st0" d="M937.76,327.6
	c8.32-0.33,13.84-4.48,21.02,1.11c5.86,4.57,6.64,17.14,3.62,25.48c-2.8,7.73-7.75,16.01-16.43,17.82
	c-3.6,0.75-6.66-1.11-10.02-0.56c-2.38,0.4-5.65,1.18-8.49,0.56c-12.83-2.81-24.88-28.25-14.2-41.77c2.55-3.22,8.3-5.56,14.34-4.32
	c2.46,0.51,5.99,2.18,8.63,1.53c-0.05-1.76-0.09-3.53-0.14-5.29c-6.04,3.35-11.38,1.97-15.18-2.78c-0.97-1.22-2.51-2.3-2.92-4.04
	c5.17-0.3,10.54-0.63,14.2,1.53c1.63,0.96,2.61,3.15,4.18,3.9c0.03-4,1.3-7.66,2.92-10.16c0.42-0.09,0.84-0.19,1.25-0.28
	c0.67,0.48,1.46,0.89,1.53,1.95c-0.65,1.3-1.3,2.6-1.95,3.9C938.83,319.46,937.99,323.55,937.76,327.6z"/>
<path id="pomme_00000131342741101146487600000012033108290924310946_" class="st1" d="M947.23,426.6
	c8.32-0.33,13.84-4.48,21.02,1.11c5.86,4.57,6.64,17.14,3.62,25.48c-2.8,7.73-7.75,16.01-16.43,17.82
	c-3.6,0.75-6.66-1.11-10.02-0.56c-2.38,0.4-5.65,1.18-8.49,0.56c-12.83-2.81-24.88-28.25-14.2-41.77c2.55-3.22,8.3-5.56,14.34-4.32
	c2.46,0.51,5.99,2.18,8.63,1.53c-0.05-1.76-0.09-3.53-0.14-5.29c-6.04,3.35-11.38,1.97-15.18-2.78c-0.97-1.22-2.51-2.3-2.92-4.04
	c5.17-0.3,10.54-0.63,14.2,1.53c1.63,0.96,2.61,3.15,4.18,3.9c0.03-4,1.3-7.66,2.92-10.16c0.42-0.09,0.84-0.19,1.25-0.28
	c0.67,0.48,1.46,0.89,1.53,1.95c-0.65,1.3-1.3,2.6-1.95,3.9C948.3,418.46,947.46,422.55,947.23,426.6z"/>
<g>
	<path id="pomme_00000118379709467711915670000008106581320724468611_" class="st2" d="M928.16,524.79
		c6.43-0.26,10.69-3.46,16.24,0.86c4.52,3.53,5.13,13.23,2.8,19.68c-2.16,5.97-5.99,12.36-12.69,13.76
		c-2.78,0.58-5.15-0.86-7.74-0.43c-1.84,0.31-4.37,0.91-6.56,0.43c-9.91-2.17-19.22-21.82-10.97-32.26
		c1.97-2.49,6.41-4.29,11.07-3.33c1.9,0.39,4.63,1.68,6.67,1.18c-0.04-1.36-0.07-2.72-0.11-4.09c-4.66,2.59-8.79,1.52-11.72-2.15
		c-0.75-0.94-1.94-1.78-2.26-3.12c3.99-0.23,8.14-0.49,10.97,1.18c1.25,0.74,2.02,2.43,3.23,3.01c0.03-3.09,1-5.91,2.26-7.85
		c0.32-0.07,0.65-0.14,0.97-0.22c0.52,0.37,1.13,0.68,1.18,1.51c-0.5,1-1,2.01-1.51,3.01C928.99,518.51,928.34,521.66,928.16,524.79
		z"/>
	<text transform="matrix(1 0 0 1 873.4903 598.8512)" class="st3 st4 st5 st6">POK</text>
</g>
<g>
	<path id="pomme_00000039847639837473014170000017646133330351404223_" class="st1" d="M1175.16,680.79
		c6.43-0.26,10.69-3.46,16.24,0.86c4.52,3.53,5.13,13.23,2.8,19.68c-2.16,5.97-5.99,12.36-12.69,13.76
		c-2.78,0.58-5.15-0.86-7.74-0.43c-1.84,0.31-4.37,0.91-6.56,0.43c-9.91-2.17-19.22-21.82-10.97-32.26
		c1.97-2.49,6.41-4.29,11.07-3.33c1.9,0.39,4.63,1.68,6.67,1.18c-0.04-1.36-0.07-2.72-0.11-4.09c-4.66,2.59-8.79,1.52-11.72-2.15
		c-0.75-0.94-1.94-1.78-2.26-3.12c3.99-0.23,8.14-0.49,10.97,1.18c1.26,0.74,2.02,2.43,3.23,3.01c0.03-3.09,1-5.91,2.26-7.85
		c0.32-0.07,0.65-0.14,0.97-0.22c0.52,0.37,1.13,0.68,1.18,1.51c-0.5,1-1,2.01-1.51,3.01
		C1175.99,674.51,1175.34,677.66,1175.16,680.79z"/>
	<text transform="matrix(1 0 0 1 1120.4901 754.8511)" class="st7 st4 st5 st6">POK</text>
</g>
</svg>
