<svg id="visual" viewBox="0 0 900 600" width="900" height="600" xmlns="http://www.w3.org/2000/svg" xmlns:xlink="http://www.w3.org/1999/xlink" version="1.1"><rect x="0" y="0" width="900" height="600" fill="#002233"></rect><path d="M0 491L21.5 480C43 469 86 447 128.8 446C171.7 445 214.3 465 257.2 474.5C300 484 343 483 385.8 473C428.7 463 471.3 444 514.2 440.5C557 437 600 449 642.8 458.3C685.7 467.7 728.3 474.3 771.2 474C814 473.7 857 466.3 878.5 462.7L900 459L900 601L878.5 601C857 601 814 601 771.2 601C728.3 601 685.7 601 642.8 601C600 601 557 601 514.2 601C471.3 601 428.7 601 385.8 601C343 601 300 601 257.2 601C214.3 601 171.7 601 128.8 601C86 601 43 601 21.5 601L0 601Z" fill="#0066FF" stroke-linecap="round" stroke-linejoin="miter"></path></svg>