<?xml version="1.0" standalone="no"?><svg xmlns="http://www.w3.org/2000/svg" viewBox="0 0 1440 320"><path fill="#0099ff" fill-opacity="1" d="M0,64L34.3,85.3C68.6,107,137,149,206,149.3C274.3,149,343,107,411,101.3C480,96,549,128,617,149.3C685.7,171,754,181,823,170.7C891.4,160,960,128,1029,96C1097.1,64,1166,32,1234,48C1302.9,64,1371,128,1406,160L1440,192L1440,320L1405.7,320C1371.4,320,1303,320,1234,320C1165.7,320,1097,320,1029,320C960,320,891,320,823,320C754.3,320,686,320,617,320C548.6,320,480,320,411,320C342.9,320,274,320,206,320C137.1,320,69,320,34,320L0,320Z"></path></svg>